HIERARCHY
ROOT Hips
{
	OFFSET 0.000000 8.830580 0.000000
	CHANNELS 6 Xposition Yposition Zposition Zrotation Yrotation Xrotation 
	JOINT Spine
	{
		OFFSET 0.000000 0.010000 0.000000
		CHANNELS 3 Zrotation Yrotation Xrotation
		JOINT Spine1
		{
			OFFSET 0.000000 2.459130 0.000000
			CHANNELS 3 Zrotation Yrotation Xrotation
			JOINT Neck
			{
				OFFSET 0.000000 2.484630 0.000000
				CHANNELS 3 Zrotation Yrotation Xrotation
				JOINT Head_virtual
				{
					OFFSET 0.000000 0.000000 0.000000
					CHANNELS 3 Zrotation Yrotation Xrotation
					JOINT Head
					{
						OFFSET 0.000000 0.927525 0.000000
						CHANNELS 3 Zrotation Yrotation Xrotation
						End Site
						{
							OFFSET 0.000000 0.000000 0.000000
						}
					}
				}
				JOINT LeftUpArm_virtual
				{
					OFFSET 0.000000 0.000000 0.000000
					CHANNELS 3 Zrotation Yrotation Xrotation
					JOINT LeftUpArm
					{
						OFFSET 1.248820 0.000000 0.000000
						CHANNELS 3 Zrotation Yrotation Xrotation
						JOINT LeftForeArm
						{
							OFFSET 2.597580 0.000000 0.000000
							CHANNELS 3 Zrotation Yrotation Xrotation
							JOINT LeftHand
							{
								OFFSET 2.455420 0.000000 0.000000
								CHANNELS 3 Zrotation Yrotation Xrotation
								End Site
								{
									OFFSET 0.000000 0.000000 0.000000
								}
							}
						}
					}
				}
				JOINT RightUpArm_virtual
				{
					OFFSET -0.000000 -0.000000 -0.000000
					CHANNELS 3 Zrotation Yrotation Xrotation
					JOINT RightUpArm
					{
						OFFSET -1.248820 -0.000000 -0.000000
						CHANNELS 3 Zrotation Yrotation Xrotation
						JOINT RightForeArm
						{
							OFFSET -2.597580 -0.000000 -0.000000
							CHANNELS 3 Zrotation Yrotation Xrotation
							JOINT RightHand
							{
								OFFSET -2.455420 -0.000000 -0.000000
								CHANNELS 3 Zrotation Yrotation Xrotation
								End Site
								{
									OFFSET 0.000000 0.000000 0.000000
								}
							}
						}
					}
				}
			}
		}
	}
	JOINT LeftUpLeg
	{
		OFFSET 1.271939 0.000000 0.000000
		CHANNELS 3 Zrotation Yrotation Xrotation
		JOINT LeftLowLeg
		{
			OFFSET 0.000000 -4.342910 0.000000
			CHANNELS 3 Zrotation Yrotation Xrotation
			JOINT LeftFoot
			{
				OFFSET 0.000000 -4.487670 0.000000
				CHANNELS 3 Zrotation Yrotation Xrotation
				JOINT LeftToeBase
				{
					OFFSET 0.000000 0.000000 1.515070
					CHANNELS 3 Zrotation Yrotation Xrotation
					End Site
					{
						OFFSET 0.000000 0.000000 0.000000
					}
				}
			}
		}
	}
	JOINT RightUpLeg
	{
		OFFSET -1.271939 0.000000 0.000000
		CHANNELS 3 Zrotation Yrotation Xrotation
		JOINT RightLowLeg
		{
			OFFSET 0.000000 -4.342910 0.000000
			CHANNELS 3 Zrotation Yrotation Xrotation
			JOINT RightFoot
			{
				OFFSET 0.000000 -4.487670 0.000000
				CHANNELS 3 Zrotation Yrotation Xrotation
				JOINT RightToeBase
				{
					OFFSET 0.000000 0.000000 1.515070
					CHANNELS 3 Zrotation Yrotation Xrotation
					End Site
					{
						OFFSET 0.000000 0.000000 0.000000
					}
				}
			}
		}
	}
}
MOTION
Frames: 8
Frame Time: 0.041667
-18.498072 9.218236 50.101140 -175.309123 -0.106975 -176.464774 2.720413 -1.724407 -6.883602 -0.417364 -1.909003 3.236258 0.000000 0.000000 0.000000 -0.666527 1.570330 -3.698972 6.502970 5.005260 -47.514719 0.613876 15.023800 -4.954350 -8.110410 -5.905390 -29.252600 0.000000 -21.353701 0.000000 29.120001 9.325430 24.705200 7.857080 -12.861400 -1.270050 6.105320 2.756990 -29.035601 0.000000 19.527300 0.000000 -15.584100 -0.554516 25.228600 2.906692 -0.215148 -4.221840 0.000000 0.000000 8.557470 -4.395068 -0.700103 6.798979 0.000000 0.000000 -39.592400 2.925567 7.349174 -2.965382 0.000000 0.000000 8.496370 6.853966 -6.708351 9.577764 0.000000 0.000000 -27.605100 
-18.497029 9.218392 50.102283 -175.308338 -0.084217 -176.457293 2.714251 -1.736210 -6.873311 -0.417128 -1.919408 3.277181 0.000000 0.000000 0.000000 -0.600994 1.522723 -3.658230 6.403561 5.055345 -47.569660 0.574627 15.136900 -5.019230 -8.152830 -6.045610 -29.267599 0.000000 -21.341499 0.000000 29.069099 9.414980 24.666000 7.877710 -12.856000 -1.265700 6.199580 2.773490 -29.155001 0.000000 19.563299 0.000000 -15.620100 -0.643242 25.457300 2.912360 -0.219489 -4.221321 0.000000 0.000000 8.534370 -4.408967 -0.672709 6.810361 0.000000 0.000000 -39.583300 2.927575 7.349818 -2.984322 0.000000 0.000000 8.497700 6.911613 -6.676591 9.564407 0.000000 0.000000 -27.529600 
-18.495897 9.218410 50.103527 -175.308612 -0.077131 -176.459916 2.709336 -1.753847 -6.850444 -0.403099 -1.935819 3.319637 0.000000 0.000000 0.000000 -0.590937 1.482701 -3.657917 6.394813 5.029822 -47.619435 0.594045 15.081900 -5.057270 -8.272030 -5.924820 -29.388201 0.000000 -21.448099 0.000000 28.779200 9.567190 24.918501 7.875240 -12.902600 -1.273360 6.278760 2.870890 -29.169100 0.000000 19.556299 0.000000 -15.533500 -0.864146 25.379499 2.917526 -0.192840 -4.222134 0.000000 0.000000 8.530230 -4.409208 -0.685582 6.816381 0.000000 0.000000 -39.578501 2.933650 7.347927 -2.996893 0.000000 0.000000 8.511280 6.903447 -6.671089 9.565799 0.000000 0.000000 -27.527200 
-18.494583 9.218490 50.104981 -175.310737 -0.064871 -176.467316 2.696416 -1.761787 -6.824361 -0.395176 -1.941054 3.383164 0.000000 0.000000 0.000000 -0.642805 1.528626 -3.721975 6.422838 5.025472 -47.649673 0.567887 15.059700 -5.039070 -8.278240 -5.929110 -29.225300 0.000000 -21.356899 0.000000 28.819099 9.591470 24.863400 7.912880 -12.883900 -1.262530 6.285740 2.831160 -29.098801 0.000000 19.487301 0.000000 -15.348500 -0.718329 25.349001 2.922532 -0.171007 -4.217899 0.000000 0.000000 8.523290 -4.423543 -0.696775 6.825937 0.000000 0.000000 -39.570601 2.937590 7.409337 -3.014544 0.000000 0.000000 8.539520 6.917663 -6.707613 9.559491 0.000000 0.000000 -27.527300 
-18.493185 9.218608 50.106539 -175.314188 -0.057316 -176.516487 2.670266 -1.774148 -6.757194 -0.365062 -1.948399 3.428555 0.000000 0.000000 0.000000 -0.654177 1.528843 -3.726793 6.418874 5.020015 -47.683535 0.566994 14.982700 -5.022490 -8.338950 -5.855800 -29.184200 0.000000 -21.305901 0.000000 28.805000 9.619700 24.801201 7.929440 -12.878400 -1.257930 6.303000 2.830040 -29.033600 0.000000 19.463100 0.000000 -15.360700 -0.821330 25.386000 2.925538 -0.114629 -4.180198 0.000000 0.000000 8.528070 -4.416828 -0.734717 6.840795 0.000000 0.000000 -39.596500 2.946128 7.465653 -2.993670 0.000000 0.000000 8.573530 6.925670 -6.745053 9.556377 0.000000 0.000000 -27.526100 
-18.492473 9.218670 50.108268 -175.312341 -0.058176 -176.522853 2.672668 -1.780107 -6.727231 -0.367018 -1.954869 3.461697 0.000000 0.000000 0.000000 -0.663926 1.542739 -3.718443 6.443941 5.026319 -47.726301 0.598635 14.961200 -5.042330 -8.472100 -5.877750 -29.368999 0.000000 -21.332800 0.000000 28.691401 9.812080 24.944099 7.936880 -12.829200 -1.214600 6.347790 2.737760 -29.104500 0.000000 19.469601 0.000000 -15.294700 -0.774846 25.649900 2.931310 -0.119836 -4.190349 0.000000 0.000000 8.536920 -4.420185 -0.729580 6.849568 0.000000 0.000000 -39.615499 2.951729 7.469578 -3.003995 0.000000 0.000000 8.583700 6.927806 -6.749058 9.561875 0.000000 0.000000 -27.541800 
-18.492224 9.218667 50.109579 -175.314875 -0.074428 -176.546184 2.674804 -1.793789 -6.690454 -0.364138 -1.968822 3.524313 0.000000 0.000000 0.000000 -0.661854 1.557844 -3.701885 6.429435 5.059498 -47.784693 0.608399 14.961300 -5.061520 -8.598450 -5.875250 -29.813601 0.000000 -21.474100 0.000000 28.171499 10.007900 24.983299 7.929970 -12.840400 -1.232480 6.406040 2.726200 -29.228399 0.000000 19.488400 0.000000 -15.318400 -0.943661 25.632200 2.929854 -0.142706 -4.185683 0.000000 0.000000 8.550170 -4.415501 -0.716538 6.854499 0.000000 0.000000 -39.593700 2.952649 7.466638 -2.995654 0.000000 0.000000 8.601820 6.934585 -6.754224 9.556560 0.000000 0.000000 -27.560500 
-18.491770 9.218511 50.111396 -175.315366 -0.073126 -176.555716 2.682490 -1.794468 -6.635219 -0.377807 -1.971482 3.522168 0.000000 0.000000 0.000000 -0.638620 1.553337 -3.717061 6.469669 5.069236 -47.783528 0.599007 14.934800 -4.993390 -8.605040 -5.884520 -29.775600 0.000000 -21.484699 0.000000 28.215000 10.122900 25.107000 7.937040 -12.838200 -1.211360 6.421530 2.686550 -29.307501 0.000000 19.480101 0.000000 -15.329200 -0.947490 25.654100 2.931724 -0.142837 -4.197933 0.000000 0.000000 8.572130 -4.416583 -0.714388 6.849755 0.000000 0.000000 -39.601299 2.954250 7.470516 -3.008601 0.000000 0.000000 8.623750 6.943746 -6.754341 9.551597 0.000000 0.000000 -27.545700 
